<svg width="131" height="36" viewBox="0 0 131 36" fill="none" xmlns="http://www.w3.org/2000/svg">
<path d="M128.519 19.248C128.058 17.5582 126.566 16.4825 124.832 16.4825C123.252 16.4825 121.738 17.7114 121.409 19.248H128.519ZM130.56 22.7154C129.638 24.9536 127.466 26.4678 125.03 26.4678C121.606 26.4678 118.863 23.7904 118.863 20.3448C118.863 16.8774 121.474 14.0904 124.964 14.0904C126.588 14.0904 128.212 14.8146 129.353 15.9778C130.516 17.2066 130.999 18.699 130.999 20.3666L130.911 21.3104H121.431C121.782 22.9346 123.274 24.1192 124.942 24.1192C126.105 24.1192 127.114 23.6805 127.773 22.715H130.56M106.421 16.9431H104.907V14.4414H109.098V16.1092C109.801 14.8144 111.117 14.1778 112.565 14.1778C113.838 14.1778 115.089 14.7047 115.945 15.6264C116.911 16.7018 116.933 17.7333 116.933 19.0718V23.6586H118.447V26.1603H112.741V23.6586H114.255V19.8618C114.255 19.1376 114.255 18.3915 113.794 17.7549C113.312 17.1187 112.522 16.8116 111.732 16.8116C110.92 16.8116 110.086 17.1407 109.603 17.7988C109.098 18.457 109.098 19.4667 109.098 20.257V23.6586H110.612V26.1603H104.907V23.6586H106.421V16.943M102.581 13.3222H99.9032V10.4911H102.581V13.3222ZM102.581 23.6586H104.095V26.1603H98.3669V23.6586H99.9032V16.943H98.3889V14.4413H102.581V23.6583M78.3963 16.9428H76.8823V14.441H80.8324V16.1966C81.5787 14.9678 82.7198 14.1557 84.212 14.1557C85.8359 14.1557 87.1967 15.1431 87.8549 16.6136C88.4915 15.1214 90.0715 14.1557 91.6954 14.1557C92.9684 14.1557 94.2193 14.6822 95.0749 15.648C95.9968 16.7235 95.9968 17.8865 95.9968 19.225V23.6583H97.5111V26.16H91.805V23.6583H93.3195V19.8836C93.3195 19.1153 93.3195 18.435 92.9684 17.7546C92.5294 17.1184 91.805 16.7891 91.0592 16.7891C90.335 16.7891 89.5448 17.0965 89.084 17.6667C88.5353 18.3693 88.5353 19.0276 88.5353 19.8836V23.6583H90.0495V26.16H84.3437V23.6583H85.8581V20.0593C85.8581 19.3569 85.8581 18.4792 85.507 17.8647C85.1339 17.1626 84.3657 16.7892 83.5756 16.7892C82.8294 16.7892 82.193 17.0527 81.7103 17.6454C81.1175 18.3695 81.0737 19.1375 81.0737 20.0373V23.6584H82.5879V26.1601H76.8823V23.6584H78.3963V16.9428M69.6464 22.7592C69.7343 23.8126 70.4364 24.5146 71.5338 24.5146C72.3458 24.5146 73.1356 23.9445 73.1356 23.0666C73.1356 21.9033 72.0385 21.7059 71.1386 21.4645C69.0976 20.9379 66.8592 20.3012 66.8592 17.7338C66.8592 15.4952 68.7465 14.2006 70.8316 14.2006C71.8846 14.2006 72.8283 14.4202 73.4867 15.2539V14.442H75.4619V17.6241H72.8721C72.8283 16.7899 72.1919 16.2414 71.3581 16.2414C70.6339 16.2414 69.8659 16.6584 69.8659 17.4703C69.8659 18.5676 70.9412 18.8089 71.797 19.0064C73.9036 19.4892 76.1641 20.1478 76.1641 22.7813C76.1641 25.1513 74.1671 26.4679 71.9727 26.4679C70.7873 26.4679 69.712 26.095 68.944 25.1952V26.1606H66.9032V22.759H69.6464M61.9639 20.2358C61.9639 18.3043 60.3619 16.7461 58.4307 16.7461C56.4338 16.7461 54.8975 18.3923 54.8975 20.3672C54.8975 22.2767 56.4996 23.8566 58.3869 23.8566C60.4057 23.8566 61.9639 22.2327 61.9639 20.2358ZM61.9202 24.5808C61.0641 25.8755 59.6817 26.4681 58.1454 26.4681C54.7877 26.4681 52.1325 23.6811 52.1325 20.3672C52.1325 16.9656 54.8537 14.1348 58.2771 14.1348C59.7913 14.1348 61.1081 14.8369 61.9202 16.1098V14.442H66.1118V16.9437H64.6413V23.6593H66.1118V26.161H61.9202V24.581M43.8364 21.7502C43.8584 22.7159 44.451 23.7031 45.5483 23.7031C46.2067 23.7031 46.6895 23.396 47.0188 22.8474C47.3258 22.2987 47.3258 21.4868 47.3258 20.8723V12.9941H45.6142V10.4921H52.0002V12.9941H50.3105V21.2454C50.3105 22.6501 50.2224 23.7472 49.2352 24.8885C48.3574 25.898 46.931 26.4686 45.5701 26.4686C42.7611 26.4686 40.6103 24.6032 40.7204 21.7504H43.8364" fill="#192335"/>
<path d="M17.086 15.111H19.8212L20.5007 14.1756V6.84796H16.4067V14.1762L17.086 15.111" fill="#192335"/>
<path d="M17.8512 29.4006H18.9857V23.8301H17.8512V29.4006ZM7.73616 22L7.38575 20.921L12.6832 19.2003L13.0334 20.2793L7.73631 22M14.5715 13.521L11.298 9.01449L12.2162 8.34749L15.4897 12.8543L14.5715 13.5211M22.3925 13.5624L21.4745 12.8955L24.7483 8.3887L25.6665 9.0554L22.3924 13.5625M29.1489 22.0677L23.8512 20.3461L24.2017 19.2669L29.4991 20.9885L29.1489 22.0677M20.7386 15.7775L21.5842 18.3792L22.6838 18.736L29.6528 16.4719L28.3878 12.5784L21.4183 14.8432L20.7384 15.7776M21.2364 19.458L19.0232 21.0657L19.0235 22.2216L23.3305 28.1501L26.6429 25.744L22.335 19.8152L21.2364 19.458ZM17.8887 21.0663L15.6761 19.458L14.5764 19.8159L10.2694 25.7442L13.5812 28.1502L17.8888 22.2216V21.0663M15.3252 18.3792L16.1703 15.778L15.4906 14.8425L8.52167 12.5781L7.25651 16.4716L14.2267 18.7363L15.3254 18.3792M18.4573 0.487427C8.72053 0.487427 0.798828 8.40762 0.798828 18.1428C0.798828 27.8817 8.72053 35.8043 18.4573 35.8043C28.1931 35.8043 36.1136 27.8817 36.1136 18.1428C36.1136 8.40762 28.1931 0.487427 18.4573 0.487427ZM18.4573 4.06233C26.2325 4.06233 32.5384 10.3655 32.5384 18.1428C32.5384 25.9229 26.2325 32.2288 18.4573 32.2288C10.679 32.2288 4.37434 25.9229 4.37434 18.1428C4.37434 10.3655 10.679 4.06233 18.4573 4.06233Z" fill="#192335"/>
</svg>
