<svg width="131" height="32" viewBox="0 0 131 32" fill="none" xmlns="http://www.w3.org/2000/svg">
<path d="M19.8171 26.1459C19.8171 26.1459 13.7082 17.4437 18.5324 8.83676C22.2299 2.63002 29.5559 -0.421957 36.5685 1.32275C39.8399 2.36556 38.5564 7.98822 38.5564 9.36945C38.5063 9.96355 38.5564 10.5602 38.7018 11.1392C38.8835 11.6456 39.3786 11.9715 39.9138 11.9389C40.4687 11.8542 41.0189 11.7408 41.562 11.5992C41.4864 15.2243 40.1396 18.7077 37.7568 21.4407C33.8788 25.5142 31.2605 23.4775 27.8175 26.4104C24.3744 29.3433 21.4666 33.0533 22.5332 27.5008C25.9512 9.78181 35.3803 3.26047 32.2293 5.36991C23.0922 11.7935 19.8184 26.1434 19.8184 26.1434L19.8171 26.1459Z" fill="#192335"/>
<path d="M11.5738 15.1651C10.4663 11.8847 8.51912 8.95146 5.92603 6.65721C9.05446 8.48463 11.6139 11.1443 13.321 14.3404L14.0229 15.649C14.2261 13.1009 14.9609 10.6236 16.1799 8.37684C14.3064 6.65086 12.0746 5.36033 9.64405 4.59762C7.21355 3.83491 4.64451 3.61886 2.12077 3.96494C2.83895 4.89245 3.12974 6.08316 2.92042 7.23627C2.50681 9.07874 -2.26857 14.7503 2.50681 20.497C5.52369 23.9476 8.91158 27.0522 12.6153 29.757C13.3871 24.8768 13.0304 19.8847 11.5725 15.1639L11.5738 15.1651Z" fill="#192335"/>
<path d="M17.5017 6.48673C15.7553 5.20576 13.7683 4.29048 11.6597 3.79572C14.0233 2.44858 16.6963 1.73854 19.4168 1.73517C19.2476 2.68022 19.5384 3.18909 21.0412 3.67415C19.7928 4.52158 18.6097 5.46132 17.5017 6.48548V6.48673ZM12.7388 31.4541C12.7388 31.4541 2.65414 25.3213 0.618652 20.571C1.66146 24.6921 1.44338 29.1516 12.7388 31.4553V31.4541ZM26.531 30.3636C26.531 30.3636 29.5366 27.1149 30.7975 27.1149C32.0584 27.1149 35.6456 26.072 35.6456 26.072C35.6456 26.072 33.6339 30.0227 26.531 30.3624V30.3636ZM56.5282 22.5363L52.0486 15.3231L50.2563 17.8962V22.5363H47.3986V5.59683H50.2563V13.7012L55.7248 5.59683H58.9785L53.9425 13.0206L59.9436 22.5463L56.5282 22.5363ZM67.1819 21.2854C66.8705 21.7643 66.4155 22.1323 65.8821 22.337C65.2703 22.6078 64.6085 22.747 63.9394 22.7456C62.8656 22.7996 61.8118 22.4408 60.994 21.7429C60.6228 21.374 60.3339 20.9308 60.1462 20.4424C59.9585 19.954 59.8762 19.4314 59.9048 18.909C59.8758 18.2666 59.9998 17.6266 60.2665 17.0415C60.5332 16.4565 60.935 15.9431 61.4389 15.5437C62.7092 14.6509 64.2445 14.2148 65.7944 14.3066C66.1792 14.3153 66.5627 14.3743 66.9325 14.4795C66.9325 13.0198 66.058 12.2899 64.3092 12.2899C63.4119 12.259 62.5204 12.4456 61.7109 12.8338L61.1193 10.6317C62.1733 10.1304 63.3304 9.88435 64.4972 9.91347C65.926 9.78813 67.3511 10.2205 68.4453 11.1506C69.27 11.9753 69.6824 13.6047 69.6824 16.0387V18.6871C69.6824 20.3328 69.992 21.3719 70.6224 21.793C70.4722 22.1317 70.204 22.4042 69.8679 22.5601C69.5609 22.6623 69.2389 22.7123 68.9153 22.708C68.5117 22.703 68.1257 22.5325 67.85 22.238C67.5553 21.9802 67.33 21.6527 67.1944 21.2854H67.1819ZM66.935 16.6943C66.5903 16.6103 66.2381 16.5614 65.8821 16.5464C63.713 16.5464 62.6284 17.293 62.6284 18.7861C62.6284 19.8916 63.2384 20.4485 64.4583 20.4569C66.1078 20.4569 66.9325 19.5908 66.9325 17.8586L66.935 16.6943ZM74.1244 21.8557L73.5052 22.7706H71.9711V5.54669L74.7285 4.86611V10.6317C75.4304 10.1729 76.2526 9.92977 77.0924 9.92601C77.8684 9.89538 78.6419 10.0332 79.3596 10.3301C80.0773 10.6269 80.7222 11.0758 81.2498 11.6456C82.3311 12.8471 82.8997 14.4237 82.8341 16.0387C82.9396 17.8304 82.3704 19.5966 81.2386 20.9896C80.6985 21.5928 80.0306 22.0679 79.2836 22.3801C78.5366 22.6924 77.7293 22.8339 76.9207 22.7945C75.913 22.8045 74.9316 22.4723 74.1382 21.8544L74.1244 21.8557ZM74.7059 13.1071V19.5532C74.8999 19.7982 75.1488 19.9942 75.4325 20.1253C75.7162 20.2563 76.0268 20.3188 76.3391 20.3078C77.3794 20.418 78.4159 20.0546 79.1592 19.305C79.7893 18.3703 80.0816 17.2486 79.9877 16.1252C79.9877 13.6502 78.845 12.4127 76.5597 12.4127C75.8754 12.3576 75.201 12.607 74.7172 13.0933L74.7059 13.1071ZM86.7572 21.8557L86.138 22.7706H84.5913V5.54669L87.3363 4.86611V10.6317C88.0464 10.1688 88.8763 9.92352 89.7239 9.92601C91.2982 9.86334 92.8223 10.49 93.894 11.6456C94.9752 12.8471 95.5438 14.4237 95.4782 16.0387C95.5822 17.8311 95.0145 19.5958 93.8827 20.9896C93.3421 21.5921 92.6741 22.0667 91.9272 22.3789C91.1804 22.6911 90.3733 22.833 89.5648 22.7945C88.5621 22.8095 87.5594 22.4774 86.7572 21.8544V21.8557ZM87.3388 13.1071V19.5532C87.5328 19.7982 87.7817 19.9942 88.0654 20.1253C88.3491 20.2563 88.6596 20.3188 88.9719 20.3078C90.0122 20.418 91.0488 20.0546 91.792 19.305C92.4221 18.3703 92.7144 17.2486 92.6205 16.1252C92.6205 13.6502 91.4778 12.4127 89.1925 12.4127C88.8523 12.3825 88.5096 12.4279 88.1889 12.5455C87.8682 12.6632 87.5775 12.8502 87.3375 13.0933L87.3388 13.1071ZM104.005 21.2854C103.694 21.7643 103.239 22.1323 102.705 22.337C102.094 22.6081 101.432 22.7473 100.762 22.7456C99.6722 22.8087 98.5994 22.4497 97.7669 21.7429C97.3958 21.374 97.1069 20.9308 96.9192 20.4424C96.7314 19.954 96.6491 19.4314 96.6777 18.909C96.6487 18.2666 96.7727 17.6266 97.0394 17.0415C97.3061 16.4565 97.708 15.9431 98.2118 15.5437C99.4825 14.6518 101.018 14.2158 102.567 14.3066C102.952 14.3163 103.335 14.3745 103.705 14.4795C103.705 13.0198 102.831 12.2899 101.082 12.2899C100.189 12.2615 99.3023 12.448 98.4964 12.8338L97.9023 10.6317C98.9562 10.1304 100.113 9.88435 101.28 9.91347C101.988 9.84378 102.702 9.9174 103.38 10.13C104.059 10.3425 104.687 10.6896 105.228 11.1506C106.053 11.9753 106.465 13.6047 106.465 16.0387V18.6871C106.465 20.3328 106.775 21.3719 107.405 21.793C107.255 22.1314 106.987 22.4034 106.651 22.5601C106.344 22.6625 106.022 22.7125 105.698 22.708C105.295 22.7017 104.911 22.5325 104.633 22.238C104.348 21.9769 104.131 21.6498 104.002 21.2854H104.005ZM103.733 16.6943C103.388 16.6099 103.035 16.5603 102.68 16.5464C100.511 16.5464 99.4264 17.293 99.4264 18.7861C99.4264 19.8916 100.036 20.4485 101.256 20.4569C102.906 20.4569 103.73 19.5908 103.73 17.8586L103.733 16.6943ZM108.112 25.7399L109.844 23.4876C110.504 24.1534 111.349 24.606 112.269 24.787C113.189 24.968 114.142 24.869 115.005 24.5028C115.22 24.4304 115.408 24.2948 115.545 24.1137C115.682 23.9325 115.761 23.7143 115.772 23.4876C115.772 22.7581 115.203 22.3846 114.065 22.3846C113.605 22.395 113.146 22.4323 112.691 22.4962C112.236 22.5588 111.776 22.5964 111.317 22.6215C109.429 22.6215 108.485 21.9079 108.485 20.4807C108.489 20.0256 108.656 19.5872 108.955 19.2436C109.247 18.8709 109.625 18.5738 110.056 18.3775C109.411 17.9603 108.885 17.3831 108.529 16.7022C108.173 16.0213 108 15.2599 108.026 14.4921C107.991 13.2462 108.496 12.048 109.412 11.2007C109.871 10.7681 110.412 10.4306 111.002 10.2075C111.592 9.98447 112.221 9.88028 112.851 9.90094C113.756 9.87587 114.652 10.0889 115.45 10.5201L116.527 9.19654L118.433 11.0139L117.122 12.0166C117.605 12.7913 117.855 13.6893 117.84 14.6024C117.868 15.2193 117.772 15.8355 117.56 16.4154C117.348 16.9953 117.022 17.5272 116.603 17.9802C115.792 18.81 114.669 19.2587 113.509 19.2173C113.246 19.2324 112.981 19.2324 112.717 19.2173L112.26 19.1546C112.057 19.2154 111.862 19.2982 111.678 19.4016C111.332 19.562 111.171 19.7362 111.171 19.9217C111.171 20.1072 111.43 20.3792 111.925 20.3792C112.309 20.3566 112.677 20.299 113.063 20.2062C113.514 20.1022 113.974 20.0442 114.437 20.0333C117.111 20.0333 118.448 21.1634 118.448 23.4237C118.46 24.0123 118.318 24.5939 118.036 25.1107C117.754 25.6274 117.341 26.0613 116.84 26.3691C115.685 27.1046 114.335 27.4754 112.967 27.4332C111.205 27.4298 109.496 26.8328 108.116 25.7386L108.112 25.7399ZM110.86 14.5297C110.83 15.1672 111.037 15.7932 111.441 16.2869C111.632 16.5072 111.871 16.6817 112.138 16.7973C112.406 16.913 112.697 16.9668 112.988 16.955C113.272 16.9726 113.557 16.9237 113.819 16.812C114.081 16.7004 114.313 16.5292 114.497 16.312C114.876 15.7978 115.064 15.1675 115.028 14.5297C115.043 13.9494 114.84 13.3841 114.459 12.9454C114.28 12.7261 114.053 12.5508 113.796 12.4328C113.538 12.3148 113.257 12.2574 112.974 12.2648C112.688 12.256 112.404 12.3076 112.14 12.4162C111.875 12.5249 111.637 12.6881 111.44 12.8953C111.041 13.3335 110.832 13.9116 110.858 14.5033L110.86 14.5297ZM130.287 17.2282H121.922C121.916 17.659 121.996 18.0867 122.157 18.4862C122.319 18.8857 122.558 19.2489 122.862 19.5545C123.526 20.1273 124.387 20.4318 125.262 20.3717C125.784 20.4118 126.308 20.3411 126.801 20.1642C127.293 19.9872 127.743 19.7081 128.12 19.3452L129.185 21.5473C127.935 22.4622 126.4 22.9008 124.855 22.7844C124.069 22.8249 123.282 22.698 122.549 22.4122C121.815 22.1263 121.15 21.688 120.598 21.1262C119.495 19.8453 118.936 18.1858 119.039 16.4987C118.963 14.7538 119.582 13.0499 120.759 11.7597C121.284 11.1935 121.917 10.7379 122.621 10.4195C123.325 10.1011 124.085 9.92642 124.857 9.90564C125.629 9.88486 126.397 10.0184 127.117 10.2985C127.837 10.5785 128.494 10.9995 129.049 11.5366C129.565 12.0826 129.968 12.7259 130.234 13.4292C130.499 14.1324 130.622 14.8814 130.595 15.6326C130.543 16.1732 130.44 16.7075 130.286 17.2282H130.287ZM121.985 15.0511H127.813C127.84 14.2965 127.543 13.5671 126.998 13.0457C126.453 12.5243 125.707 12.2636 124.955 12.3287C123.371 12.3413 122.406 13.2437 122.01 15.0636L121.985 15.0511Z" fill="#192335"/>
</svg>
