<svg width="131" height="34" viewBox="0 0 131 34" fill="none" xmlns="http://www.w3.org/2000/svg">
<path d="M46.8352 10.8483L46.2966 12.9474L45.097 16.5453H48.5757L47.376 12.9474C47.1468 12.2279 46.8375 10.8483 46.8375 10.8483H46.8352ZM49.1726 18.5253H44.5092L43.3691 21.9444H40.8506L45.5885 8.57042H48.107L52.7854 21.9444H50.2669L49.1726 18.5253ZM58.1719 20.1443C59.4323 20.1443 60.5712 19.2448 60.5712 17.085C60.5712 15.5954 59.7921 14.146 58.1719 14.146C56.8519 14.146 55.7725 15.2253 55.7725 17.1446C55.7725 18.9435 56.8038 20.1432 58.1719 20.1432M57.7525 12.1064C59.8516 12.1064 60.5116 13.3668 60.5116 13.3668V8.56927H62.911V21.9432H60.6193V20.5637C60.6193 20.5637 59.7794 22.1827 57.6207 22.1827C55.0426 22.1827 53.3629 20.1432 53.3629 17.1446C53.3629 14.0852 55.1618 12.1064 57.7399 12.1064M68.4876 20.3242C69.748 20.3242 70.6464 18.9446 70.6464 17.8057V17.5765H70.227C68.9666 17.5765 66.9889 17.7564 66.9889 19.0661C67.0485 19.6653 67.5274 20.3265 68.4785 20.3265M70.3347 15.8853H70.6945V15.765C70.6945 14.5046 69.9153 14.0852 68.8348 14.0852C67.4553 14.0852 66.196 14.9847 66.196 14.9847L65.2965 13.2453C65.2965 13.2453 66.7861 12.0457 69.0754 12.0457C71.5939 12.0457 73.0342 13.4252 73.0342 15.8842V21.8814H70.8285V20.4456C70.8285 20.4456 70.109 22.1254 67.8895 22.1254C66.1502 22.1254 64.6514 21.0461 64.6514 19.1268C64.6514 16.1282 68.7901 15.8887 70.3496 15.8887M79.5241 20.1443C80.8441 20.1443 81.9235 19.0649 81.9235 17.1457C81.9235 15.3468 80.9644 14.1471 79.5241 14.1471C78.2637 14.1471 77.1248 15.0466 77.1248 17.2064C77.1844 18.696 77.9647 20.1454 79.5241 20.1454V20.1443ZM74.8458 12.347H77.0045V13.7266C77.0045 13.7266 77.8444 12.1076 80.0638 12.1076C82.6419 12.1076 84.3217 14.1471 84.3217 17.1457C84.3217 20.205 82.462 22.1838 79.9446 22.1838C78.0254 22.1838 77.1855 20.8639 77.1855 20.8639C77.1845 21.1449 77.2044 21.4257 77.2451 21.7038V25.7221H74.8458V12.347Z" fill="#192335"/>
<path d="M86.6603 14.3866H85.3999V12.4674H86.6603V9.69794H88.9978V12.4571H91.1565V14.3763H88.9978V18.0945C88.9978 19.7135 90.2582 19.8934 90.917 19.8934H91.3364V21.9925C91.3364 21.9925 91.0362 22.0521 90.6168 22.0521C89.2968 22.0521 86.658 21.6923 86.658 18.4543L86.6603 14.3866Z" fill="#192335"/>
<path d="M96.3163 20.3242C97.5767 20.3242 98.475 18.9446 98.475 17.8057V17.5765H98.0556C96.7952 17.5765 94.8175 17.7564 94.8175 19.0661C94.8771 19.6653 95.2988 20.3265 96.3071 20.3265M98.1668 15.8887H98.467V15.7684C98.467 14.508 97.6878 14.0887 96.6073 14.0887C95.2277 14.0887 93.9685 14.9881 93.9685 14.9881L93.0919 13.2499C93.0919 13.2499 94.5815 12.0503 96.8708 12.0503C99.3893 12.0503 100.83 13.4298 100.83 15.8887V21.8859H98.6102V20.4456C98.6102 20.4456 97.8906 22.1254 95.6712 22.1254C93.9318 22.1254 92.4331 21.0461 92.4331 19.1268C92.4331 16.1282 96.5718 15.8887 98.1908 15.8887M101.365 12.3367H103.883L105.862 18.2743C106.042 18.8129 106.162 19.7135 106.222 19.7135L106.582 18.2743L108.56 12.3367H111.079L107.66 21.9329H104.782L101.365 12.3367ZM112.342 12.3482H114.741V21.9444H112.342V12.3482ZM112.342 8.56927H114.679V10.6684H112.342V8.56927ZM117.019 19.0649C117.019 19.0649 118.098 20.1443 119.658 20.1443C120.318 20.1443 120.918 19.8441 120.918 19.2448C120.918 17.8057 116.24 17.9844 116.24 14.9251C116.24 13.1262 117.859 12.1064 119.898 12.1064C122.057 12.1064 123.136 13.1858 123.136 13.1858L122.237 14.9847C122.237 14.9847 121.337 14.1448 119.899 14.1448C119.3 14.1448 118.639 14.374 118.639 15.0443C118.639 16.4238 123.317 16.2439 123.317 19.3021C123.317 20.9212 121.938 22.1804 119.659 22.1804C117.259 22.1804 115.941 20.7413 115.941 20.7413L117.019 19.0649Z" fill="#192335"/>
<path d="M125.524 14.3866H124.263V12.4674H125.524V9.69794H127.861V12.4571H130.02V14.3763H127.861V18.0945C127.861 19.7135 129.121 19.8934 129.78 19.8934H130.2V21.9925C130.2 21.9925 129.899 22.0521 129.48 22.0521C128.16 22.0521 125.521 21.6923 125.521 18.4543L125.524 14.3866Z" fill="#192335"/>
<path d="M21.1391 26.1497C21.1391 21.9021 24.5365 18.5048 28.784 18.5048C33.0315 18.5048 36.4289 21.9021 36.4289 26.1497C36.4289 30.3972 33.0315 33.7946 28.784 33.7946C24.5365 33.8793 21.1391 30.3972 21.1391 26.1497ZM22.2426 1.51695C19.9486 0.158011 17.0612 -0.0115706 14.5977 1.34737C13.3463 2.03181 12.3155 3.05817 11.6257 4.30657C10.9359 5.55497 10.6155 6.97387 10.7019 8.39756C10.621 10.6058 10.009 12.762 8.91788 14.6835C7.79506 16.5707 6.21839 18.1474 4.33118 19.2702C1.78289 20.5443 0.0836445 23.0926 0 26.0649C0.00474399 27.4179 0.359189 28.7468 1.02893 29.9224C1.69868 31.0981 2.66098 32.0807 3.82244 32.7748C4.98587 33.4699 6.3099 33.851 7.66487 33.8808C9.01984 33.9105 10.3593 33.5878 11.5521 32.9444C12.8035 32.2599 13.8343 31.2336 14.5241 29.9852C15.2139 28.7368 15.5343 27.3179 15.4479 25.8942C15.5288 23.6859 16.1408 21.5297 17.2319 19.6082C18.3547 17.721 19.9314 16.1443 21.8186 15.0215C24.3669 13.7474 26.0661 11.1991 26.1498 8.22684C26.1498 5.42417 24.6213 2.87588 22.3273 1.60174L22.2426 1.51695Z" fill="#192335"/>
</svg>
