<svg width="131" height="42" viewBox="0 0 131 42" fill="none" xmlns="http://www.w3.org/2000/svg">
<path d="M104.25 16.3593H101.236V17.8627C100.19 16.7062 98.7709 16.0471 97.1519 16.0471C93.6155 16.0471 91.0493 18.981 91.0493 23.032C91.0493 26.935 93.6143 29.7949 97.1265 29.7949C98.7686 29.7949 100.015 29.2479 101.236 27.9307V29.7464C101.236 32.4559 100.166 33.7986 97.9244 33.7986C96.7286 33.7986 95.5329 33.2018 95.0102 32.2836C94.7118 31.7632 94.6112 31.2659 94.5129 30.1442H91.5755C91.6009 34.0472 94.0156 36.4838 97.9013 36.4838C100.118 36.4838 102.061 35.5887 103.132 33.9743C104.004 32.7312 104.254 31.5874 104.254 29.0513L104.25 16.3593ZM97.7001 18.6953C99.8672 18.6953 101.361 20.3861 101.361 22.8585C101.361 25.3946 99.9158 27.0854 97.7498 27.0854C95.5583 27.0854 94.1382 25.4432 94.1382 22.9083C94.1127 20.3722 95.5329 18.7069 97.7001 18.7069V18.6953Z" fill="#192335"/>
<path d="M46.2686 16.3592V29.3623H49.2568V22.6503C49.2568 19.891 50.0039 18.6976 51.6854 18.6976C53.0303 18.6976 53.6779 19.8159 53.6779 22.153V29.3635H56.6662V22.6503C56.6662 19.8656 57.4133 18.6976 59.0947 18.6976C60.5403 18.6976 61.0873 19.6667 61.0873 22.1288V29.3635H64.0756V21.332C64.0756 17.8626 62.5814 16.0123 59.6811 16.0123C58.0875 16.0123 56.7668 16.683 55.8451 17.9262C55.0356 16.683 53.8271 16.0123 52.3827 16.0123C51.0875 16.0123 50.4167 16.3592 49.295 17.5538V16.3592H46.2686ZM75.3093 16.3592V17.8626C74.0141 16.5443 72.8808 15.9984 71.2618 15.9984C67.7751 15.9984 65.1094 18.9069 65.1094 22.7613C65.1094 26.839 67.6999 29.7463 71.3358 29.7463C72.9051 29.7463 73.9262 29.2745 75.3209 27.9815V29.3485H78.3346V16.3592H75.3093ZM71.7729 18.6952C73.9644 18.6952 75.4735 20.4357 75.4735 22.8723C75.4735 25.3818 73.954 27.0737 71.7729 27.0737C69.6566 27.0737 68.1613 25.309 68.1613 22.8723C68.1613 20.4612 69.7052 18.6952 71.7729 18.6952ZM83.7028 16.3592H80.6891V29.3623H83.7028V16.3592ZM82.2341 9.12447C81.1124 9.12447 80.2416 9.99412 80.2416 11.0638C80.2416 12.1336 81.1378 13.0518 82.1856 13.0518C83.2819 13.0518 84.1781 12.1567 84.1781 11.0627C84.1781 9.96868 83.3062 9.12331 82.2353 9.12331L82.2341 9.12447ZM86.4668 5.81934H89.4805V29.3647H86.4668V5.81934Z" fill="#192335"/>
<path d="M109.057 16.3593H106.043V23.8924C106.043 25.9312 106.416 27.0495 107.413 28.1192C108.46 29.1878 109.879 29.7614 111.597 29.7614C113.341 29.7614 114.76 29.2144 115.807 28.1192C116.801 27.0507 117.177 25.9312 117.177 23.8924V16.3593H114.163V23.8415C114.163 26.0538 113.354 27.0738 111.598 27.0738C109.854 27.0738 109.057 26.0561 109.057 23.8415V16.3593ZM119.168 16.3593V29.3624H122.182V23.0968C122.182 19.8899 122.929 18.7208 124.958 18.7208C126.825 18.7208 127.386 19.565 127.386 22.1265V29.3867H130.4V21.4072C130.4 17.7528 128.88 16.0366 125.693 16.0366C124.273 16.0366 123.377 16.4345 122.206 17.5782V16.3847H119.167L119.168 16.3593ZM20.448 13.541C18.4191 13.5428 16.4737 14.3488 15.0378 15.7822C13.602 17.2156 12.7929 19.1597 12.7877 21.1886C12.7929 23.2175 13.602 25.1616 15.0378 26.595C16.4737 28.0285 18.4191 28.8344 20.448 28.8362C22.4769 28.8344 24.4223 28.0285 25.8581 26.595C27.294 25.1616 28.1031 23.2175 28.1083 21.1886C28.1031 19.1597 27.294 17.2156 25.8581 15.7822C24.4223 14.3488 22.4769 13.5428 20.448 13.541ZM8.52268 21.1886C8.52758 18.0293 9.78623 15.001 12.0222 12.7689C14.2582 10.5369 17.2886 9.28351 20.448 9.28413C27.0305 9.28413 32.3733 14.6038 32.3733 21.1886C32.3733 21.6431 32.3317 22.056 32.29 22.47C32.2068 23.6264 33.0359 24.4938 34.1947 24.4938C36.141 24.4938 36.348 21.9727 36.348 21.1458C36.348 12.3418 29.2243 5.23308 20.4052 5.23308C11.5861 5.23308 4.46354 12.3429 4.46354 21.147C4.46354 29.951 11.5873 37.0597 20.4064 37.0597C25.0854 37.0597 29.2682 35.036 32.2079 31.8511L35.4807 34.5803C31.7951 38.7135 26.4118 41.3178 20.4075 41.3178C9.22696 41.3178 0.199707 32.2651 0.199707 21.1458C0.199707 9.98609 9.26859 0.973877 20.4075 0.973877C31.5881 0.973877 40.6153 10.0266 40.6153 21.1458C40.6153 25.6097 38.462 29.2479 34.197 29.2479C32.2924 29.2479 31.1741 28.3806 30.5114 27.4288C28.3997 30.8172 24.6713 33.0492 20.3659 33.0492C13.8643 33.0908 8.52383 27.7584 8.52383 21.1863L8.52268 21.1886ZM20.448 17.6753C22.3943 17.6753 23.9682 19.2458 23.9682 21.147C23.9682 22.0805 23.5974 22.9757 22.9373 23.6358C22.2773 24.2958 21.382 24.6666 20.4486 24.6666C19.5151 24.6666 18.6199 24.2958 17.9598 23.6358C17.2997 22.9757 16.9289 22.0805 16.9289 21.147C16.9705 19.2458 18.5017 17.6753 20.4491 17.6753H20.448Z" fill="#192335"/>
</svg>
