<svg width="131" height="61" viewBox="0 0 131 61" fill="none" xmlns="http://www.w3.org/2000/svg">
<path d="M13.038 14.6832C12.8713 14.1844 12.5821 13.7129 12.2995 13.2727C11.935 12.7001 11.5266 12.1566 11.0779 11.6473C10.8356 11.3868 10.5048 10.9623 10.1402 10.8268C10.075 10.8008 10.0255 10.7747 9.95391 10.7786C9.91484 10.7656 9.87838 10.7656 9.84972 10.7656L7.55752 10.1743C6.50126 9.86816 5.47952 9.45353 4.50862 8.93704C4.09185 8.71303 3.6816 8.47469 3.2974 8.20119L3.01608 7.99281C2.66834 7.52395 2.31279 7.00299 1.86998 6.6253L1.77881 6.57581C1.84784 6.9561 2.07185 7.30775 2.26721 7.63595C2.75169 8.45255 3.31823 9.22096 3.89129 9.97765C4.43308 10.694 5.01134 11.3999 5.71463 11.9794C6.29029 12.4639 6.94539 12.8455 7.61352 13.1867L9.8888 14.2625C10.863 14.6402 11.8528 14.9372 12.8843 15.096L12.7501 15.0752C12.8062 15.0791 12.8595 15.0934 12.9116 15.1143C13.2216 15.2237 13.094 14.8056 13.0549 14.6845L13.038 14.6832Z" fill="#192335"/>
<path d="M10.3858 10.9934C10.2712 10.4802 10.0289 9.9814 9.79058 9.51645C9.4839 8.91036 9.12985 8.32942 8.73174 7.77906C8.5468 7.51597 8.33841 7.2581 8.10919 7.04581L7.87476 6.87259C7.16105 6.68635 6.40306 6.76449 5.68675 6.57565C5.06813 6.41132 4.47484 6.16331 3.92331 5.83849C3.60813 5.63402 3.30077 5.41392 3.01554 5.17037L2.80065 5.00627L2.76809 4.97501L2.59227 4.78877L2.57143 4.75881L1.95019 3.92268C1.56859 3.46684 1.16094 2.90681 0.629564 2.62029L0.720731 2.67238C0.686869 2.63722 0.646495 2.61117 0.599609 2.59033C0.600912 2.6294 0.612633 2.66587 0.620447 2.70364C0.629823 2.74568 0.643348 2.78669 0.660822 2.82607C0.830132 3.35353 1.0294 3.86798 1.27295 4.36289L1.73529 5.23939L1.83297 5.41391L2.36435 6.30345C2.84363 7.01976 3.34505 7.6918 3.92722 8.32736C4.48724 8.93949 5.10979 9.51905 5.80006 9.97879C6.45906 10.4164 7.15845 10.8253 7.91644 11.0624C8.64969 11.2929 9.42721 11.315 10.1826 11.4349C10.3194 11.5 10.3936 11.457 10.404 11.3046L10.3714 11.0181L10.3858 10.9934Z" fill="#192335"/>
<path d="M10.4072 11.0963C10.3968 10.5701 10.2613 10.0336 10.1207 9.52953C9.94093 8.87834 9.71692 8.23105 9.43951 7.61502C9.28973 7.28161 9.09568 6.7893 8.79092 6.55227C8.73491 6.50929 8.69584 6.47022 8.62812 6.45068C8.59165 6.42724 8.55909 6.41421 8.52914 6.4077L8.1801 6.19281L8.2895 6.25793L6.52085 5.16392C5.60136 4.55179 4.74569 3.86153 3.97207 3.07098C3.64126 2.73236 3.32088 2.38462 3.03435 2.00823L2.82857 1.7217C2.63582 1.17079 2.45088 0.565177 2.14091 0.0741754L2.06798 -6.10352e-05C2.02109 0.382842 2.12919 0.786583 2.21775 1.15646C2.43916 2.08116 2.74913 2.98372 3.07082 3.87585C3.37427 4.72241 3.7155 5.56636 4.20129 6.32435C4.60503 6.95861 5.11817 7.51864 5.65476 8.0435L7.50676 9.73661C8.32336 10.3852 9.18033 10.9648 10.1194 11.4232L9.99823 11.3633C10.0503 11.3841 10.0972 11.4128 10.1415 11.4493C10.402 11.6446 10.4085 11.2096 10.4059 11.082L10.4072 11.0963Z" fill="#192335"/>
<path d="M15.8244 17.8297C15.6069 17.3504 15.267 16.9128 14.9388 16.5064C14.5129 15.979 14.0493 15.4645 13.5453 15.0243C13.3104 14.805 13.0558 14.608 12.7847 14.4356L12.5216 14.3145C11.7844 14.278 11.0603 14.5099 10.3205 14.4734C9.68202 14.4398 9.05106 14.3193 8.4451 14.1152C8.09292 13.9815 7.74968 13.8254 7.41751 13.6477L7.17917 13.5148L7.14271 13.4914L6.93432 13.3481L6.90828 13.3221L6.12684 12.6318C5.65798 12.2632 5.14614 11.7983 4.56397 11.616L4.66426 11.6498C4.62518 11.6212 4.5796 11.6042 4.52881 11.5938C4.53793 11.6329 4.55486 11.6641 4.57179 11.698C4.59393 11.7462 4.61477 11.7801 4.63951 11.8152C4.91301 12.2971 5.21256 12.7568 5.55119 13.1918L6.18415 13.955L6.31439 14.1048L7.01768 14.8667C7.63371 15.4684 8.26276 16.0232 8.96215 16.5247C9.63548 17.0065 10.3648 17.4494 11.1371 17.7554C11.8717 18.0485 12.6401 18.3024 13.4293 18.3806C14.1938 18.4548 14.961 18.3154 15.7242 18.279C15.8713 18.3154 15.9351 18.2581 15.9156 18.1071L15.8244 17.831V17.8297Z" fill="#192335"/>
<path d="M19.2533 21.4099C18.9902 20.954 18.6112 20.5503 18.2479 20.1765C17.7757 19.6883 17.2667 19.2373 16.7254 18.8272C16.4323 18.6058 16.026 18.2711 15.6444 18.2099C15.5754 18.1995 15.522 18.1838 15.4516 18.1995C15.4158 18.1958 15.3795 18.1989 15.3448 18.2086L14.9346 18.1878L15.0622 18.1917L12.9888 18.0875C11.887 17.9963 10.8034 17.8036 9.74326 17.4858C9.29133 17.3503 8.8407 17.1992 8.407 17.0078L8.08922 16.8593C7.65422 16.4686 7.20099 16.0297 6.69175 15.7497L6.59277 15.7197C6.72301 16.0779 7.02647 16.3787 7.28304 16.6601C7.92121 17.3633 8.63102 18.0015 9.34342 18.6267C10.0181 19.2193 10.724 19.7949 11.5184 20.226C12.1787 20.5842 12.8989 20.8277 13.6205 21.0283L16.0664 21.6274C17.1083 21.8006 18.1267 21.8944 19.1687 21.8423L19.0332 21.8488C19.0884 21.8418 19.1443 21.8445 19.1986 21.8566C19.5242 21.9022 19.3289 21.518 19.2507 21.4073L19.2533 21.4099Z" fill="#192335"/>
<path d="M11.2246 21.0103L11.6049 21.19L12.0647 21.3789C13.298 21.7644 14.6213 21.7891 15.8833 21.53L15.714 21.5664C16.3198 21.43 16.9149 21.2493 17.4944 21.0259C17.7679 20.9243 18.0987 21.1926 18.2966 21.3333C18.8176 21.6941 19.263 22.133 19.6902 22.5836C20.1174 23.0342 20.5276 23.5187 20.8584 24.0475C20.8636 24.0553 21.3351 24.7898 21.1189 24.8654C19.5222 25.4124 17.8603 25.6624 16.2089 25.2092C15.6231 25.045 15.0554 24.8221 14.5145 24.5437C13.6236 24.0905 12.85 23.4718 12.1051 22.8115C11.5841 22.3505 11.0605 21.8477 10.6308 21.3007C10.3963 21.0038 10.1398 20.6886 10.0785 20.3109L10.0994 20.4412C10.0838 20.3578 10.0655 20.3005 10.0681 20.2237C10.0707 20.1585 10.7923 20.6925 10.7323 20.643L11.2338 21.0233L11.2246 21.0103Z" fill="#192335"/>
<path d="M14.5042 25.5839L14.9171 25.6712L15.4081 25.7493C16.7105 25.8405 17.9894 25.5579 19.159 25.0148L19.0027 25.089C19.5627 24.8207 20.0967 24.499 20.6111 24.1513C20.8521 23.9898 21.2363 24.1747 21.4616 24.2646C22.0385 24.499 22.5855 24.8194 23.1052 25.1606C23.6249 25.5019 24.1341 25.877 24.5769 26.3146C24.5834 26.3211 25.2125 26.9267 25.0197 27.0504C23.5923 27.9517 22.0346 28.5794 20.3207 28.5221C19.7128 28.4977 19.1089 28.4122 18.5182 28.2668C17.5466 28.0324 16.6505 27.6078 15.7701 27.139C15.158 26.8134 14.5329 26.4409 13.9859 26.0085C13.6915 25.7741 13.3672 25.5266 13.2201 25.1711L13.2669 25.2805C13.2331 25.2023 13.2018 25.1502 13.1862 25.076C13.1732 25.0135 13.9989 25.3625 13.9285 25.3313L14.5042 25.5852V25.5839Z" fill="#192335"/>
<path d="M27.9893 28.5928C27.5543 28.2972 27.0385 28.0979 26.5462 27.9221C25.9085 27.6889 25.2536 27.5056 24.5874 27.3738C24.2293 27.3035 23.7148 27.1784 23.345 27.2904C23.2772 27.31 23.2238 27.3204 23.1678 27.3647C23.1288 27.3803 23.0988 27.3985 23.0767 27.4194L22.6859 27.5796L22.8032 27.5275L20.8926 28.3402C19.8611 28.7387 18.8022 29.0382 17.7095 29.2154C17.2433 29.2909 16.7718 29.3508 16.299 29.3677L15.95 29.373C15.39 29.2128 14.7882 29.0135 14.2048 28.9822L14.1006 28.9992C14.3871 29.2596 14.7778 29.3899 15.1321 29.5436C16.0138 29.8952 16.9294 30.1635 17.845 30.4162C18.711 30.6545 19.598 30.8642 20.4992 30.9059C21.2507 30.9397 22.0035 30.846 22.7419 30.7105L25.2165 30.1817C26.2193 29.8887 27.1857 29.5227 28.1013 29.0226L27.9841 29.0877C28.0308 29.0572 28.0823 29.0347 28.1365 29.0213C28.449 28.9197 28.0974 28.6644 27.9893 28.5915V28.5928Z" fill="#192335"/>
<path d="M19.8102 32.2654L20.2243 32.1912L20.7088 32.0779C21.9383 31.6741 23.0271 30.9291 23.9062 29.9849L23.789 30.1125C24.2033 29.6499 24.5833 29.1576 24.926 28.6395C25.0888 28.3986 25.5159 28.4247 25.7569 28.4247C26.3822 28.4342 27.0051 28.5049 27.6167 28.6356C28.2262 28.7568 28.841 28.9117 29.4166 29.1488C29.4244 29.1527 30.2371 29.477 30.1017 29.6645C29.1197 31.0372 27.911 32.2042 26.3026 32.7955C25.7348 33.0039 25.1343 33.1471 24.5366 33.2357C23.5467 33.3842 22.5569 33.3269 21.5671 33.2253C20.8768 33.1536 20.1566 33.0468 19.4885 32.8502C19.1277 32.746 18.7331 32.6379 18.4635 32.3631L18.5482 32.4477C18.4869 32.3878 18.4388 32.3527 18.3971 32.2888C18.3606 32.2368 19.2567 32.2498 19.1785 32.2459L19.8076 32.2641L19.8102 32.2654Z" fill="#192335"/>
<path d="M22.0504 35.0487L22.4542 34.925L22.923 34.7557C24.0952 34.2126 25.0915 33.3413 25.8508 32.302L25.7492 32.4426C26.11 31.9373 26.4199 31.3981 26.7039 30.8459C26.8367 30.588 27.2639 30.5633 27.5035 30.5333C28.1222 30.4591 28.7538 30.476 29.3751 30.5242C29.9963 30.5724 30.6227 30.6544 31.2245 30.8237C31.2323 30.8263 32.0775 31.053 31.9668 31.2535C31.1528 32.7317 30.0914 34.0341 28.5624 34.8091C28.0232 35.0695 27.4423 35.2961 26.8601 35.455C25.8964 35.7181 24.9066 35.7806 23.9102 35.7937C23.2161 35.8015 22.488 35.7806 21.8004 35.6634C21.4292 35.6009 21.0267 35.541 20.7246 35.3014C20.7558 35.3274 20.6985 35.2935 20.6503 35.2362C20.6087 35.1867 21.5008 35.0956 21.4227 35.1008L22.0504 35.0448V35.0487Z" fill="#192335"/>
<path d="M33.3089 31.8316C32.771 31.7847 32.2188 31.8577 31.7004 31.9332C31.0295 32.0291 30.3669 32.1758 29.7182 32.3721C29.3718 32.4763 28.8625 32.6092 28.6086 32.8709C28.5617 32.9191 28.5213 32.9517 28.4979 33.0142C28.4718 33.0455 28.4588 33.0741 28.4497 33.1015L28.2153 33.4088L28.2856 33.3124L27.1004 34.8753C26.4377 35.686 25.6863 36.4199 24.8603 37.0633C24.5021 37.3407 24.1336 37.6064 23.7376 37.8357L23.4381 37.9998C22.8689 38.1235 22.2438 38.2316 21.732 38.4725L21.6538 38.5337C22.0445 38.6197 22.4574 38.5598 22.839 38.5155C23.7897 38.4048 24.7235 38.2081 25.6469 37.9998C26.5221 37.8018 27.3973 37.57 28.1918 37.1923C28.856 36.8771 29.4473 36.4538 30.0021 36.0032L31.8177 34.4364C32.5118 33.7331 33.1383 32.9855 33.6449 32.1494L33.5798 32.2575C33.6032 32.2106 33.6345 32.1689 33.6736 32.1325C33.8846 31.9046 33.4391 31.8538 33.3089 31.842V31.8316Z" fill="#192335"/>
<path d="M37.9648 31.3798C37.9128 30.8849 37.8007 30.3991 37.6262 29.9433C37.483 29.5695 37.3397 29.141 37.048 28.8454C37.074 28.8975 37.0675 28.891 37.0375 28.835C36.8292 28.818 36.6338 28.8871 36.4567 29.0368L36.0008 29.3716C35.3679 29.8847 34.8105 30.4682 34.2973 31.0555C33.7842 31.6429 33.2945 32.2616 32.922 32.9023C32.879 32.9805 32.3945 33.7593 32.6837 33.827C32.9181 33.883 33.0327 34.0484 33.1265 34.2217C33.4937 34.964 33.7516 35.7845 33.835 36.6259C33.9457 37.755 33.8089 38.922 33.6005 40.0954L32.9884 42.9399L32.7852 43.6431L32.681 43.9401L32.6094 44.0521L31.6587 45.6736C31.6587 45.6736 31.3305 46.2336 31.6391 45.9901C32.1992 45.5472 32.5951 44.9507 32.991 44.4272C33.7503 43.4217 34.4106 42.3759 35.0527 41.3327C35.5147 40.5958 35.9154 39.8221 36.2509 39.0197L36.5895 38.2083L36.962 37.1989L37.4361 35.5449C37.7877 34.1578 38.1094 32.7148 37.9648 31.3811V31.3798Z" fill="#192335"/>
<path d="M46.9022 22.4166L46.9569 22.5078C46.785 22.2122 46.4568 22.0429 46.1585 21.8827C45.605 21.5831 44.9838 21.3513 44.3769 21.1572C43.5082 20.8785 42.6291 20.6428 41.6965 20.5894C41.125 20.5536 40.5514 20.5741 39.9839 20.6506C38.3741 20.8746 36.9884 21.6886 35.729 22.7266C35.716 22.7357 35.7186 22.7501 35.7134 22.7631C35.2393 23.1642 34.7952 23.6266 34.3849 24.0915C33.7168 24.8534 33.0877 25.644 32.6241 26.5595C32.3723 27.0543 32.1636 27.5697 32.0002 28.1003C31.8257 27.7708 31.6173 27.4491 31.3621 27.2667L29.9321 26.2509C25.8556 23.4729 21.7726 20.7157 18.1037 17.3998L17.799 17.1185L17.5724 16.9075L16.9368 16.3006C16.5174 15.893 16.1033 15.4801 15.6995 15.0542C14.853 14.166 14.022 13.2504 13.2276 12.3114C12.8076 11.8174 12.4002 11.3128 12.0059 10.798L11.8054 10.531L11.7559 10.4633C11.5905 10.2289 11.4342 9.98923 11.2779 9.74959L10.9237 9.19216L10.8195 9.00983C10.4131 8.04606 10.6502 8.65558 10.6241 8.58786C10.2592 7.64977 9.84218 6.73277 9.37512 5.84111C9.11464 5.34881 8.81249 4.69241 8.37749 4.31341C7.99979 3.98521 8.1691 4.78878 8.17301 4.83437L8.17692 4.86693C8.17517 5.04767 8.18649 5.22831 8.21078 5.40742C8.25636 5.70697 8.30586 6.00652 8.37358 6.30346C8.58847 7.24639 8.8776 8.14244 9.18367 9.06062C9.68378 10.5584 10.4014 11.9936 11.132 13.3872C12.4657 15.9294 14.1497 18.4066 16.0811 20.5243C17.8133 22.4127 19.7122 24.1527 21.6944 25.7768C23.6962 27.4178 25.7709 28.9807 27.8808 30.4915C27.8639 30.4915 27.8912 30.5045 27.9355 30.5305L28.5763 30.9864C29.2769 31.5881 30.1678 32.7472 29.6377 34.4924L29.1207 35.5239L28.8993 35.9902C28.8706 36.037 28.8602 36.0644 28.8602 36.0722C28.6655 36.4843 28.4792 36.9003 28.3015 37.3199C27.7631 38 27.1093 38.5802 26.37 39.0338C26.1903 39.1328 26.0053 39.2266 25.8191 39.3113C25.6889 39.3673 25.5586 39.4154 25.4284 39.4714C25.3463 39.5066 25.4232 39.4845 24.8098 39.5861C24.8879 39.573 24.0075 39.7463 24.0544 39.7918C24.1091 39.8439 24.1638 39.87 24.2367 39.9156L24.1364 39.8504C24.4581 40.0614 24.8658 40.0849 25.2408 40.1109C25.935 40.163 26.6735 40.1161 27.3507 40.0419C27.0994 40.8598 26.9144 41.7037 26.7777 42.5464L26.6865 43.1194C26.1681 43.8292 25.6146 44.513 24.9934 45.146C24.4633 45.6891 23.9085 46.2087 23.3263 46.6958C23.0333 46.9563 22.735 47.1842 22.4303 47.416L22.0109 47.7286L21.7843 47.8914C21.1357 48.3394 20.4858 48.751 19.8177 49.1287C19.4843 49.3175 19.1483 49.5025 18.8044 49.6718L18.2444 49.9362L18.0451 50.0273C18.036 50.0312 18.0321 50.0338 18.0191 50.0403C17.3397 50.3298 16.6465 50.5854 15.9418 50.8062L15.7256 50.8674L15.2437 50.9937L14.7644 51.1109L14.599 51.15C14.052 51.2581 13.4855 51.3662 12.9775 51.6058C12.8473 51.667 12.4084 51.8989 12.7379 52.0708C13.1234 52.2726 13.7069 52.2401 14.1184 52.2362C14.8731 52.2183 15.6254 52.1438 16.369 52.0135C18.837 51.6097 21.2594 50.8153 23.5191 49.7082L22.946 50.2552C22.6009 50.5717 22.2493 50.883 21.8885 51.1825L21.6645 51.3688L21.1605 51.7595C20.8218 52.0135 20.4767 52.2544 20.1264 52.4888L19.8945 52.6386L19.3475 52.9733L19.1131 53.1101L18.5713 53.4005L18.5166 53.4266L18.0412 53.648L17.9722 53.6792L17.5763 53.8381L16.3598 54.1598L15.9691 54.2575C15.9301 54.264 15.8858 54.2705 15.8363 54.2835C15.0392 54.4203 14.2448 54.8045 13.5337 55.1561C12.9137 55.4596 12.2964 55.7943 11.7364 56.2007C11.7103 56.2176 11.6843 56.2397 11.6608 56.2554C11.6374 56.271 11.6048 56.2879 11.5788 56.3074C11.4668 56.383 10.9067 56.6956 10.9276 56.9261C10.9497 57.1644 13.3839 56.5796 13.7733 56.4781C17.2116 55.5794 20.4897 54.0165 23.493 52.0942C23.3341 52.3365 23.17 52.5761 23.002 52.8131L22.7871 53.1036L22.3938 53.6076L22.2206 53.8212L21.8299 54.2809L21.7986 54.3148L21.4079 54.7016L21.3506 54.7589L21.0419 55.0389L20 55.7683L19.6549 56.0027C19.6175 56.0242 19.581 56.0472 19.5455 56.0717C18.8461 56.4794 18.2366 57.1201 17.6909 57.6971C17.2168 58.1985 16.7571 58.7286 16.3755 59.3055C16.3585 59.3316 16.3403 59.3576 16.3234 59.3863C16.3064 59.415 16.2843 59.4358 16.2648 59.4618C16.1866 59.5725 15.7699 60.0609 15.874 60.2693C15.9782 60.4842 18.0529 59.0841 18.3825 58.8367C21.9445 56.3283 24.9296 52.9759 27.3377 49.3553L27.4289 49.2185C29.5387 47.4772 31.4428 45.4755 32.9289 43.1885C33.2974 42.8238 33.5709 42.5034 33.6321 42.3055C34.648 38.9687 34.7691 37.3954 34.5139 36.067C34.6858 35.9862 34.8655 35.9368 35.0609 35.9732C35.3943 36.0383 35.5532 35.0147 35.5727 34.9157C35.6185 34.6625 35.6533 34.4074 35.6769 34.1512C36.0184 33.8859 36.3369 33.5922 36.6289 33.2734C36.681 33.2174 37.2124 32.6573 37.0275 32.4789C36.8764 32.3356 36.836 32.1325 36.8139 31.9319C36.7335 31.0731 36.7664 30.2074 36.9116 29.3571C37.1134 28.2344 37.4976 27.1691 37.9378 26.1272L38.2765 25.3522C38.5915 25.3677 38.9065 25.3194 39.2025 25.2103C39.5353 25.0893 39.8361 24.8937 40.0816 24.6385C40.0985 24.6281 40.1167 24.619 40.1311 24.606C40.5635 24.2257 41.0128 23.8675 41.4921 23.5458C42.465 22.9285 43.5564 22.5039 44.6829 22.3567C44.8913 22.3385 45.1023 22.3242 45.312 22.3242C45.4422 22.3255 45.5751 22.3346 45.7066 22.3372C45.79 22.3385 45.717 22.3294 46.2705 22.4713C46.2015 22.4531 47.009 22.6341 46.9895 22.5807C46.9673 22.5156 46.9322 22.4739 46.8931 22.4114L46.9022 22.4166ZM16.0525 54.2588C16.0303 54.2601 16.0004 54.264 15.9743 54.2679C16.2088 54.208 16.1567 54.2379 16.0525 54.2588ZM19.2225 53.0645C19.3527 52.9929 19.4908 52.9108 19.2225 53.0645V53.0645ZM21.697 51.3688C21.7882 51.2972 22.0591 51.0731 21.697 51.3688V51.3688ZM19.7591 55.9714C19.7382 55.9792 19.7135 55.9936 19.6901 56.0079C19.8906 55.8698 19.8502 55.9167 19.7591 55.9714ZM22.2883 53.7678C22.3925 53.6467 22.5332 53.4708 22.2883 53.7678V53.7678Z" fill="#192335"/>
<path d="M55.0263 30.2924H56.722V42.8344H55.0263V30.2924ZM60.1877 22.3478H61.8834V39.4938C61.8834 41.14 62.631 41.3888 63.2796 41.3888C63.5049 41.3888 63.7028 41.3627 63.7028 41.3627V42.8839C63.7028 42.8839 63.4033 42.9334 63.0803 42.9334C62.0319 42.9334 60.189 42.6104 60.189 39.8663V22.3609L60.1877 22.3478ZM65.8466 22.3478H67.5293V39.4938C67.5293 41.14 68.2781 41.3888 68.9254 41.3888C69.1494 41.3888 69.3487 41.3627 69.3487 41.3627V42.8839C69.3487 42.8839 69.0492 42.9334 68.7236 42.9334C67.6764 42.9334 65.8322 42.6104 65.8322 39.8663L65.8466 22.3478ZM71.4573 30.2924H73.153V37.8228C73.153 39.7934 73.4525 41.5386 75.8711 41.5386C78.7389 41.5386 80.5102 39.0197 80.5102 36.303V30.2924H82.2059V42.8344H80.5597V40.9525C80.5597 40.4029 80.6092 39.9549 80.6092 39.9549H80.5597C80.1345 40.901 79.4441 41.7035 78.5723 42.2654C77.7004 42.8274 76.6843 43.1245 75.6471 43.121C72.7037 43.121 71.4586 41.5255 71.4586 38.2578V30.2781L71.4573 30.2924ZM85.5439 30.2924H87.2149V32.164C87.2149 32.711 87.1654 33.1616 87.1654 33.1616H87.2149C87.814 31.4659 89.8067 29.9942 91.7524 29.9942C94.0707 29.9942 95.2689 31.066 95.6427 33.1368H95.6922C96.3655 31.4411 98.1862 29.9942 100.305 29.9942C103.348 29.9942 104.47 31.7654 104.47 34.8573V42.8371H102.775V35.2832C102.775 33.2384 102.351 31.5427 100.056 31.5427C98.1354 31.5427 96.5661 33.2397 96.092 35.0852C95.9175 35.6348 95.8667 36.2313 95.8667 36.906V42.8397H94.171V35.2858C94.171 33.3908 93.9105 31.5453 91.5271 31.5453C89.4824 31.5453 87.9364 33.3166 87.4116 35.2363C87.2898 35.7848 87.2312 36.3454 87.237 36.9073V42.841H85.5413V30.2989L85.5439 30.2924ZM113.595 29.9929C117.261 29.9929 120.228 32.7865 120.228 36.5009C120.228 40.2779 117.258 43.134 113.595 43.134C109.931 43.134 106.962 40.2909 106.962 36.5009C106.962 32.7852 109.931 29.9929 113.595 29.9929ZM113.595 41.6141C116.288 41.6141 118.481 39.4196 118.481 36.5022C118.481 33.6591 116.288 31.5531 113.595 31.5531C110.901 31.5531 108.708 33.6721 108.708 36.5022C108.708 39.4196 110.903 41.6141 113.595 41.6141ZM122.795 40.0942C122.795 40.0942 124.191 41.6154 126.535 41.6154C127.882 41.6154 129.054 40.9421 129.054 39.6201C129.054 36.8773 122.295 37.5493 122.295 33.4598C122.295 31.2158 124.313 29.9929 126.585 29.9929C129.229 29.9929 130.449 31.3643 130.449 31.3643L129.677 32.6615C129.677 32.6615 128.605 31.5154 126.534 31.5154C125.262 31.5154 124.04 32.0624 124.04 33.4598C124.04 36.2274 130.799 35.4785 130.799 39.6201C130.799 41.6649 129.028 43.1366 126.509 43.1366C123.468 43.1366 121.873 41.3159 121.873 41.3159L122.795 40.0942ZM55.8729 24.8224C55.15 24.8224 54.564 25.4085 54.564 26.1313C54.564 26.8541 55.15 27.4402 55.8729 27.4402C56.5957 27.4402 57.1818 26.8541 57.1818 26.1313C57.1818 25.4085 56.5957 24.8224 55.8729 24.8224Z" fill="#192335"/>
</svg>
