<svg width="217" height="4279" viewBox="0 0 217 4279" fill="none" xmlns="http://www.w3.org/2000/svg">
<path fill-rule="evenodd" clip-rule="evenodd" d="M53 4201.35C51.5721 4202.99 49.4397 4203.97 47.6861 4205.41C35.8395 4215.09 23.9244 4225.29 14.4742 4237.66C19.9115 4236.15 26.3207 4233.93 32.2757 4232.29C36.4189 4231.18 42.5076 4230.06 43.1538 4235.04C43.8635 4239.94 37.4594 4245.63 35.1933 4248.18C26.775 4257.47 18.4253 4266.3 8.96657 4274.94C7.47697 4276.38 4.6949 4279.13 2.55734 4279C1.39342 4278.93 0.157514 4278.02 0.0323798 4276.77C-0.293311 4274.68 1.91796 4272.39 3.07502 4270.88C6.89246 4265.97 10.715 4260.74 14.7913 4256.49C20.4257 4250.54 26.3807 4244.78 32.2757 4238.96C26.8384 4240 20.8834 4243.46 14.9284 4243.99C11.8189 4244.26 8.84489 4243.27 8.38892 4240.72C7.54555 4236.34 13.8931 4230.13 16.0924 4227.77C22.6987 4220.64 30.3353 4214.17 38.0336 4208.8C41.9848 4206.05 46.4502 4202.72 50.8521 4201.15C51.303 4201.02 52.6023 4200.82 52.9897 4201.34L53 4201.35Z" fill="#FCCC44"/>
<path d="M111.341 30.9693C111.996 31.4536 112.931 31.5451 113.743 31.8199C115.202 32.3238 116.648 32.8539 118.121 33.3251C119.681 33.8199 121.126 34.6236 122.37 35.6882C123.613 36.7529 124.63 38.0568 125.359 39.5223C126.409 41.4888 127.315 43.5295 128.068 45.6281C129.095 48.5336 129.848 51.5178 130.803 54.4692C131.222 55.9479 131.81 57.3732 132.557 58.7163C133.035 59.5016 134.089 59.9269 134.52 60.2672C136.366 60.4308 137.649 59.7502 138.139 58.1534C138.84 55.865 139.376 53.5294 139.743 51.1644C140.639 45.5888 143.545 41.2697 147.929 37.9322C150.102 36.2547 152.442 34.8051 154.912 33.6064C158.786 31.761 159.067 28.3711 154.984 26.5715C149.749 24.2549 146.745 20.0274 144.919 14.7921C143.839 11.7229 142.956 8.58829 141.994 5.47983C141.684 4.13862 141.264 2.82532 140.737 1.55336C140.292 0.831246 139.591 0.303238 138.774 0.074387C137.688 -0.233187 136.772 0.453946 136.228 1.38321C135.741 2.28793 135.33 3.23134 134.998 4.20376C134.043 6.7756 133.172 9.3802 132.165 11.9324C130.655 15.7844 128.258 19.2261 125.169 21.9777C122.276 24.5953 119.083 26.3556 115.052 26.4603C113.696 26.5658 112.368 26.9022 111.125 27.455C110.608 27.6579 109.928 28.5152 110.006 28.9537C110.195 29.7639 110.669 30.4793 111.341 30.9693ZM129.429 24.4252C131.194 22.5751 132.77 20.5538 134.134 18.3914C135.482 16.2449 136.444 13.8563 138.107 10.5384C140.836 18.5615 143.381 25.4787 150.54 29.752C148.165 31.46 146.005 32.7624 144.16 34.405C142.099 36.1922 140.227 38.1854 138.571 40.3535C137.086 42.369 136.098 44.7445 134.645 47.3556C133.094 43.7825 131.818 40.5498 130.3 37.4283C128.782 34.2393 126.384 31.5507 123.389 29.68C125.653 27.756 127.708 26.2639 129.442 24.4512L129.429 24.4252Z" fill="#2F57EF"/>
<path d="M170.291 57.1843C170.945 57.6686 171.881 57.7602 172.686 58.0351C174.152 58.5324 175.598 59.0691 177.064 59.5402C178.624 60.0351 180.069 60.8387 181.312 61.9034C182.556 62.968 183.572 64.2719 184.301 65.7375C185.353 67.7022 186.261 69.7406 187.017 71.8367C188.038 74.7488 188.797 77.7264 189.746 80.6843C190.165 82.1639 190.756 83.5893 191.507 84.9314C191.978 85.7167 193.031 86.142 193.47 86.4823C195.309 86.6459 196.591 85.9653 197.082 84.3686C197.782 82.0795 198.32 79.7441 198.692 77.3795C199.582 71.8039 202.494 67.4848 206.879 64.1473C209.048 62.4685 211.386 61.0188 213.855 59.8216C217.729 57.9762 218.017 54.5863 213.927 52.7867C208.691 50.47 205.688 46.2425 203.862 41.0073C202.789 37.9381 201.899 34.8034 200.943 31.695C200.631 30.3543 200.211 29.0412 199.687 27.7685C199.241 27.0464 198.54 26.5184 197.723 26.2895C196.637 25.9754 195.714 26.6691 195.178 27.5984C194.687 28.5012 194.275 29.4449 193.947 30.4189C192.985 32.9908 192.122 35.5953 191.114 38.141C189.604 41.9947 187.207 45.4383 184.118 48.1927C181.226 50.8103 178.032 52.5708 174.001 52.6755C172.645 52.7778 171.316 53.1144 170.075 53.6702C169.558 53.8731 168.884 54.7238 168.956 55.1688C169.145 55.9786 169.619 56.6935 170.291 57.1843ZM188.378 50.6402C190.14 48.7887 191.714 46.7676 193.077 44.6065C194.425 42.46 195.394 40.0714 197.056 36.7536C199.785 44.7767 202.33 51.6939 209.49 55.9672C207.108 57.6752 204.955 58.9774 203.103 60.62C201.041 62.404 199.17 64.3977 197.521 66.5686C196.035 68.5842 195.047 70.9597 193.594 73.5708C192.05 69.9977 190.767 66.765 189.255 63.6434C187.735 60.4542 185.335 57.7658 182.338 55.8951C184.596 53.9712 186.651 52.4922 188.378 50.6664V50.6402Z" fill="#2F57EF"/>
<path fill-rule="evenodd" clip-rule="evenodd" d="M114.186 1936.88C114.245 1937.4 114.186 1937.87 114.361 1938.25C114.846 1939.45 115.407 1940.61 116.038 1941.74C118.123 1945.28 120.286 1948.77 122.401 1952.29C124.175 1955.22 125.95 1958.15 127.636 1961.12C128.408 1962.52 129.064 1963.98 129.6 1965.48C129.901 1966.33 130.043 1967.24 130.02 1968.15C130 1969.61 129.133 1970.53 127.701 1970.88C126.721 1971.07 125.707 1971.03 124.743 1970.77C122.658 1970.26 120.643 1969.51 118.744 1968.51C113.819 1966.03 109.095 1963.21 104.413 1960.32C102.851 1959.36 101.304 1958.37 99.7571 1957.39C99.2863 1957.14 98.8515 1956.83 98.4644 1956.46C98.1841 1956.13 98.0209 1955.72 98 1955.29C98 1954.88 98.6449 1954.66 99.3607 1954.84C99.8804 1954.96 100.387 1955.14 100.872 1955.36C102.615 1956.15 104.378 1956.9 106.069 1957.78C108.646 1959.12 111.163 1960.58 113.722 1961.95C116.615 1963.51 119.511 1965.06 122.439 1966.55C123.627 1967.2 124.945 1967.59 126.299 1967.68C126.778 1967.36 126.71 1966.97 126.562 1966.62C125.997 1965.3 125.504 1963.93 124.788 1962.68C123.096 1959.71 121.306 1956.79 119.528 1953.86C117.514 1950.55 115.446 1947.27 113.456 1943.94C112.674 1942.63 111.982 1941.28 111.385 1939.88C110.992 1938.98 110.755 1938.01 110.684 1937.03C110.542 1934.55 112.237 1932.99 114.725 1933.28C115.712 1933.41 116.677 1933.66 117.594 1934.04C120.981 1935.46 124.332 1936.96 127.701 1938.41C131.002 1939.83 134.308 1941.24 137.617 1942.64C138.12 1942.81 138.634 1942.94 139.155 1943.04C139.046 1942.56 138.904 1942.09 138.729 1941.63C137.492 1939.02 136.217 1936.42 134.99 1933.81C134.277 1932.29 133.573 1930.77 132.973 1929.22C132.583 1928.23 132.311 1927.2 132.162 1926.14C131.807 1923.41 133.177 1921.75 135.936 1921.52C136.854 1921.47 137.774 1921.48 138.69 1921.56C140.909 1921.69 143.127 1921.89 145.34 1922.02C146.408 1922.08 147.481 1922.07 148.555 1922.07C149.082 1922.07 149.611 1922 149.996 1921.98C150.493 1920.85 150.215 1920.04 149.996 1919.26C149.662 1918.08 149.25 1916.94 148.833 1915.8C148.023 1913.59 147.171 1911.39 146.375 1909.18C146.115 1908.47 145.927 1907.73 145.813 1906.98C145.763 1906.67 146.002 1906.31 146.109 1906C146.955 1905.97 147.372 1906.47 147.662 1906.99C149.599 1910.43 151.803 1913.74 153.202 1917.46C153.652 1918.67 153.918 1919.93 153.992 1921.22C154.113 1923.43 152.83 1925.03 150.65 1925.46C149.369 1925.69 148.065 1925.77 146.766 1925.69C143.935 1925.56 141.113 1925.29 138.285 1925.11C137.463 1925.05 136.617 1924.88 135.78 1925.29C135.664 1926.36 136.01 1927.29 136.371 1928.19C137.096 1929.94 137.871 1931.68 138.667 1933.4C139.85 1935.95 141.089 1938.48 142.261 1941.04C142.656 1941.86 142.953 1942.72 143.148 1943.61C143.503 1945.41 142.367 1946.83 140.524 1946.79C139.377 1946.77 138.242 1946.56 137.167 1946.16C134.094 1944.99 131.056 1943.74 128.039 1942.44C124.385 1940.86 120.774 1939.22 117.132 1937.6C116.242 1937.19 115.355 1936.74 114.186 1936.88Z" fill="#192335"/>
</svg>
